# xmcd
#
# Track frame offsets:
#	150
#	8630
#	29185
#	48885
#	69367
#	83572
#	105397
#	125237
#	132552
#	152702
#	174705
#	192092
#	211292
#	231457
#	251692
#	271897
#
# Disc length: 3893 seconds
#
# Revision: 0
# Processed by: cddbd v1.5.2PL0 Copyright (c) Steve Scherf et al.
# Submitted via: EasyCDDAExtractor 10.0.3.1
#
DISCID=e00f3310
DTITLE=MP Hiphop 2002 ù¦×µ
DYEAR=2002
DGENRE=Hip-Hop
TTITLE0=Lifestyle Anthem(DJ TACTICS, SCHEDULE 1 and VASCO)
TTITLE1=N.I.M.I.(VASCO and JUVIE TRAIN)
TTITLE2=What da Fuck U Want(SQUARE and D.O)
TTITLE3=Better Then U(JOOSUC and SPHERE OF INFLUENCE)
TTITLE4=Close Encounter of Hip Hop 3rd Kind(DJ FREEK and DJ HONDA)
TTITLE5=ºô¸®Áø(DEFCONN and ³Ì¾÷»þ´Ï)
TTITLE6=´Ï´Ò¸®(ONESUN, SOLCHAMBER and ±èÁøÇ¥)
TTITLE7=It Nerber Ends (interlude)
TTITLE8=Sex Drive pt.2(MR.SHY-D and VERBAL JINT)
TTITLE9=On The Couch(QJ, AS ONE and JOOSUC)
TTITLE10=°­³² ±è¼¼ ÀÌ¾ß±â(RHYMER and DJ TACTICS)
TTITLE11=Listen to This(GOLIATH MONSTA , ½Ç·Â, DIGGA and DETECT)
TTITLE12=How B Do(SIDE-B and DJ soulscape)
TTITLE13=The Untouchable(MASTER PLAN ALLSTARZ)
TTITLE14=Sex Drive pt.2 (inst.)
TTITLE15=The Untouchable (inst.)
EXTD=YEAR: 2002\n
EXTT0=
EXTT1=
EXTT2=
EXTT3=
EXTT4=
EXTT5=
EXTT6=
EXTT7=
EXTT8=
EXTT9=
EXTT10=
EXTT11=
EXTT12=
EXTT13=
EXTT14=
EXTT15=
PLAYORDER=
